<mxfile host="app.diagrams.net" modified="2024-01-29T00:13:06.011Z" agent="Mozilla/5.0 (Macintosh; Intel Mac OS X 10_15_7) AppleWebKit/537.36 (KHTML, like Gecko) Chrome/120.0.0.0 Safari/537.36" etag="vpXwB43g44z9Et6HhO27" version="23.0.2" type="device">
  <diagram id="R2lEEEUBdFMjLlhIrx00" name="Page-1">
    <mxGraphModel dx="2687" dy="822" grid="1" gridSize="10" guides="1" tooltips="1" connect="1" arrows="1" fold="1" page="1" pageScale="1" pageWidth="850" pageHeight="1100" math="0" shadow="0" extFonts="Permanent Marker^https://fonts.googleapis.com/css?family=Permanent+Marker">
      <root>
        <mxCell id="0" />
        <mxCell id="1" parent="0" />
        <mxCell id="C-vyLk0tnHw3VtMMgP7b-1" value="" style="edgeStyle=entityRelationEdgeStyle;endArrow=ERzeroToMany;startArrow=ERone;endFill=1;startFill=0;fillColor=#3399FF;" parent="1" source="C-vyLk0tnHw3VtMMgP7b-24" target="C-vyLk0tnHw3VtMMgP7b-6" edge="1">
          <mxGeometry width="100" height="100" relative="1" as="geometry">
            <mxPoint x="340" y="720" as="sourcePoint" />
            <mxPoint x="440" y="620" as="targetPoint" />
          </mxGeometry>
        </mxCell>
        <mxCell id="C-vyLk0tnHw3VtMMgP7b-12" value="" style="edgeStyle=entityRelationEdgeStyle;endArrow=ERzeroToMany;startArrow=ERone;endFill=1;startFill=0;exitX=0;exitY=0.5;exitDx=0;exitDy=0;fillColor=#3399FF;" parent="1" source="C-vyLk0tnHw3VtMMgP7b-24" target="C-vyLk0tnHw3VtMMgP7b-17" edge="1">
          <mxGeometry width="100" height="100" relative="1" as="geometry">
            <mxPoint x="470" y="440" as="sourcePoint" />
            <mxPoint x="460" y="205" as="targetPoint" />
          </mxGeometry>
        </mxCell>
        <mxCell id="C-vyLk0tnHw3VtMMgP7b-13" value="User Goals" style="shape=table;startSize=30;container=1;collapsible=1;childLayout=tableLayout;fixedRows=1;rowLines=0;fontStyle=1;align=center;resizeLast=1;fillColor=#97D077;" parent="1" vertex="1">
          <mxGeometry x="-250" y="180" width="250" height="130" as="geometry" />
        </mxCell>
        <mxCell id="C-vyLk0tnHw3VtMMgP7b-14" value="" style="shape=partialRectangle;collapsible=0;dropTarget=0;pointerEvents=0;fillColor=#97D077;points=[[0,0.5],[1,0.5]];portConstraint=eastwest;top=0;left=0;right=0;bottom=1;" parent="C-vyLk0tnHw3VtMMgP7b-13" vertex="1">
          <mxGeometry y="30" width="250" height="30" as="geometry" />
        </mxCell>
        <mxCell id="C-vyLk0tnHw3VtMMgP7b-15" value="PK" style="shape=partialRectangle;overflow=hidden;connectable=0;fillColor=#97D077;top=0;left=0;bottom=0;right=0;fontStyle=1;" parent="C-vyLk0tnHw3VtMMgP7b-14" vertex="1">
          <mxGeometry width="30" height="30" as="geometry">
            <mxRectangle width="30" height="30" as="alternateBounds" />
          </mxGeometry>
        </mxCell>
        <mxCell id="C-vyLk0tnHw3VtMMgP7b-16" value="user_goal_idÂ char(50) NOT NULL " style="shape=partialRectangle;overflow=hidden;connectable=0;fillColor=#97D077;top=0;left=0;bottom=0;right=0;align=left;spacingLeft=6;fontStyle=5;" parent="C-vyLk0tnHw3VtMMgP7b-14" vertex="1">
          <mxGeometry x="30" width="220" height="30" as="geometry">
            <mxRectangle width="220" height="30" as="alternateBounds" />
          </mxGeometry>
        </mxCell>
        <mxCell id="C-vyLk0tnHw3VtMMgP7b-17" value="" style="shape=partialRectangle;collapsible=0;dropTarget=0;pointerEvents=0;fillColor=#97D077;points=[[0,0.5],[1,0.5]];portConstraint=eastwest;top=0;left=0;right=0;bottom=0;" parent="C-vyLk0tnHw3VtMMgP7b-13" vertex="1">
          <mxGeometry y="60" width="250" height="30" as="geometry" />
        </mxCell>
        <mxCell id="C-vyLk0tnHw3VtMMgP7b-18" value="FK1" style="shape=partialRectangle;overflow=hidden;connectable=0;fillColor=#97D077;top=0;left=0;bottom=0;right=0;" parent="C-vyLk0tnHw3VtMMgP7b-17" vertex="1">
          <mxGeometry width="30" height="30" as="geometry">
            <mxRectangle width="30" height="30" as="alternateBounds" />
          </mxGeometry>
        </mxCell>
        <mxCell id="C-vyLk0tnHw3VtMMgP7b-19" value="user_id char(50) NOT NULL" style="shape=partialRectangle;overflow=hidden;connectable=0;fillColor=#97D077;top=0;left=0;bottom=0;right=0;align=left;spacingLeft=6;" parent="C-vyLk0tnHw3VtMMgP7b-17" vertex="1">
          <mxGeometry x="30" width="220" height="30" as="geometry">
            <mxRectangle width="220" height="30" as="alternateBounds" />
          </mxGeometry>
        </mxCell>
        <mxCell id="C-vyLk0tnHw3VtMMgP7b-20" value="" style="shape=partialRectangle;collapsible=0;dropTarget=0;pointerEvents=0;fillColor=#97D077;points=[[0,0.5],[1,0.5]];portConstraint=eastwest;top=0;left=0;right=0;bottom=0;" parent="C-vyLk0tnHw3VtMMgP7b-13" vertex="1">
          <mxGeometry y="90" width="250" height="30" as="geometry" />
        </mxCell>
        <mxCell id="C-vyLk0tnHw3VtMMgP7b-21" value="" style="shape=partialRectangle;overflow=hidden;connectable=0;fillColor=#97D077;top=0;left=0;bottom=0;right=0;" parent="C-vyLk0tnHw3VtMMgP7b-20" vertex="1">
          <mxGeometry width="30" height="30" as="geometry">
            <mxRectangle width="30" height="30" as="alternateBounds" />
          </mxGeometry>
        </mxCell>
        <mxCell id="C-vyLk0tnHw3VtMMgP7b-22" value="goal_ids array NOT NULL" style="shape=partialRectangle;overflow=hidden;connectable=0;fillColor=#97D077;top=0;left=0;bottom=0;right=0;align=left;spacingLeft=6;" parent="C-vyLk0tnHw3VtMMgP7b-20" vertex="1">
          <mxGeometry x="30" width="220" height="30" as="geometry">
            <mxRectangle width="220" height="30" as="alternateBounds" />
          </mxGeometry>
        </mxCell>
        <mxCell id="C-vyLk0tnHw3VtMMgP7b-23" value="Users" style="shape=table;startSize=30;container=1;collapsible=1;childLayout=tableLayout;fixedRows=1;rowLines=0;fontStyle=1;align=center;resizeLast=1;fillColor=#3399FF;" parent="1" vertex="1">
          <mxGeometry x="120" y="120" width="310" height="340" as="geometry" />
        </mxCell>
        <mxCell id="C-vyLk0tnHw3VtMMgP7b-24" value="" style="shape=partialRectangle;collapsible=0;dropTarget=0;pointerEvents=0;fillColor=#3399FF;points=[[0,0.5],[1,0.5]];portConstraint=eastwest;top=0;left=0;right=0;bottom=1;" parent="C-vyLk0tnHw3VtMMgP7b-23" vertex="1">
          <mxGeometry y="30" width="310" height="30" as="geometry" />
        </mxCell>
        <mxCell id="C-vyLk0tnHw3VtMMgP7b-25" value="PK" style="shape=partialRectangle;overflow=hidden;connectable=0;fillColor=#3399FF;top=0;left=0;bottom=0;right=0;fontStyle=1;" parent="C-vyLk0tnHw3VtMMgP7b-24" vertex="1">
          <mxGeometry width="30" height="30" as="geometry">
            <mxRectangle width="30" height="30" as="alternateBounds" />
          </mxGeometry>
        </mxCell>
        <mxCell id="C-vyLk0tnHw3VtMMgP7b-26" value="user_id char(50) NOT NULL" style="shape=partialRectangle;overflow=hidden;connectable=0;fillColor=#3399FF;top=0;left=0;bottom=0;right=0;align=left;spacingLeft=6;fontStyle=5;" parent="C-vyLk0tnHw3VtMMgP7b-24" vertex="1">
          <mxGeometry x="30" width="280" height="30" as="geometry">
            <mxRectangle width="280" height="30" as="alternateBounds" />
          </mxGeometry>
        </mxCell>
        <mxCell id="C-vyLk0tnHw3VtMMgP7b-27" value="" style="shape=partialRectangle;collapsible=0;dropTarget=0;pointerEvents=0;fillColor=#3399FF;points=[[0,0.5],[1,0.5]];portConstraint=eastwest;top=0;left=0;right=0;bottom=0;" parent="C-vyLk0tnHw3VtMMgP7b-23" vertex="1">
          <mxGeometry y="60" width="310" height="30" as="geometry" />
        </mxCell>
        <mxCell id="C-vyLk0tnHw3VtMMgP7b-28" value="" style="shape=partialRectangle;overflow=hidden;connectable=0;fillColor=#3399FF;top=0;left=0;bottom=0;right=0;" parent="C-vyLk0tnHw3VtMMgP7b-27" vertex="1">
          <mxGeometry width="30" height="30" as="geometry">
            <mxRectangle width="30" height="30" as="alternateBounds" />
          </mxGeometry>
        </mxCell>
        <mxCell id="C-vyLk0tnHw3VtMMgP7b-29" value="family_name char(50) NOT NULL" style="shape=partialRectangle;overflow=hidden;connectable=0;fillColor=#3399FF;top=0;left=0;bottom=0;right=0;align=left;spacingLeft=6;" parent="C-vyLk0tnHw3VtMMgP7b-27" vertex="1">
          <mxGeometry x="30" width="280" height="30" as="geometry">
            <mxRectangle width="280" height="30" as="alternateBounds" />
          </mxGeometry>
        </mxCell>
        <mxCell id="YSzL0Ylq04cX2s9FnAnc-17" value="" style="shape=partialRectangle;collapsible=0;dropTarget=0;pointerEvents=0;fillColor=#3399FF;points=[[0,0.5],[1,0.5]];portConstraint=eastwest;top=0;left=0;right=0;bottom=0;" parent="C-vyLk0tnHw3VtMMgP7b-23" vertex="1">
          <mxGeometry y="90" width="310" height="30" as="geometry" />
        </mxCell>
        <mxCell id="YSzL0Ylq04cX2s9FnAnc-18" value="" style="shape=partialRectangle;overflow=hidden;connectable=0;fillColor=#3399FF;top=0;left=0;bottom=0;right=0;" parent="YSzL0Ylq04cX2s9FnAnc-17" vertex="1">
          <mxGeometry width="30" height="30" as="geometry">
            <mxRectangle width="30" height="30" as="alternateBounds" />
          </mxGeometry>
        </mxCell>
        <mxCell id="YSzL0Ylq04cX2s9FnAnc-19" value="given_name char(50) NOT NULL" style="shape=partialRectangle;overflow=hidden;connectable=0;fillColor=#3399FF;top=0;left=0;bottom=0;right=0;align=left;spacingLeft=6;" parent="YSzL0Ylq04cX2s9FnAnc-17" vertex="1">
          <mxGeometry x="30" width="280" height="30" as="geometry">
            <mxRectangle width="280" height="30" as="alternateBounds" />
          </mxGeometry>
        </mxCell>
        <mxCell id="YSzL0Ylq04cX2s9FnAnc-20" value="" style="shape=partialRectangle;collapsible=0;dropTarget=0;pointerEvents=0;fillColor=#3399FF;points=[[0,0.5],[1,0.5]];portConstraint=eastwest;top=0;left=0;right=0;bottom=0;" parent="C-vyLk0tnHw3VtMMgP7b-23" vertex="1">
          <mxGeometry y="120" width="310" height="20" as="geometry" />
        </mxCell>
        <mxCell id="YSzL0Ylq04cX2s9FnAnc-21" value="" style="shape=partialRectangle;overflow=hidden;connectable=0;fillColor=#3399FF;top=0;left=0;bottom=0;right=0;" parent="YSzL0Ylq04cX2s9FnAnc-20" vertex="1">
          <mxGeometry width="30" height="20" as="geometry">
            <mxRectangle width="30" height="20" as="alternateBounds" />
          </mxGeometry>
        </mxCell>
        <mxCell id="YSzL0Ylq04cX2s9FnAnc-22" value="email char(50) NOT NULLÂ Â Â Â Â Â Â Â " style="shape=partialRectangle;overflow=hidden;connectable=0;fillColor=#3399FF;top=0;left=0;bottom=0;right=0;align=left;spacingLeft=6;" parent="YSzL0Ylq04cX2s9FnAnc-20" vertex="1">
          <mxGeometry x="30" width="280" height="20" as="geometry">
            <mxRectangle width="280" height="20" as="alternateBounds" />
          </mxGeometry>
        </mxCell>
        <mxCell id="YSzL0Ylq04cX2s9FnAnc-23" value="" style="shape=partialRectangle;collapsible=0;dropTarget=0;pointerEvents=0;fillColor=#3399FF;points=[[0,0.5],[1,0.5]];portConstraint=eastwest;top=0;left=0;right=0;bottom=0;" parent="C-vyLk0tnHw3VtMMgP7b-23" vertex="1">
          <mxGeometry y="140" width="310" height="30" as="geometry" />
        </mxCell>
        <mxCell id="YSzL0Ylq04cX2s9FnAnc-24" value="" style="shape=partialRectangle;overflow=hidden;connectable=0;fillColor=#3399FF;top=0;left=0;bottom=0;right=0;" parent="YSzL0Ylq04cX2s9FnAnc-23" vertex="1">
          <mxGeometry width="30" height="30" as="geometry">
            <mxRectangle width="30" height="30" as="alternateBounds" />
          </mxGeometry>
        </mxCell>
        <mxCell id="YSzL0Ylq04cX2s9FnAnc-25" value="email_confirmed boolean NOT NULL" style="shape=partialRectangle;overflow=hidden;connectable=0;fillColor=#3399FF;top=0;left=0;bottom=0;right=0;align=left;spacingLeft=6;" parent="YSzL0Ylq04cX2s9FnAnc-23" vertex="1">
          <mxGeometry x="30" width="280" height="30" as="geometry">
            <mxRectangle width="280" height="30" as="alternateBounds" />
          </mxGeometry>
        </mxCell>
        <mxCell id="YSzL0Ylq04cX2s9FnAnc-26" value="" style="shape=partialRectangle;collapsible=0;dropTarget=0;pointerEvents=0;fillColor=#3399FF;points=[[0,0.5],[1,0.5]];portConstraint=eastwest;top=0;left=0;right=0;bottom=0;" parent="C-vyLk0tnHw3VtMMgP7b-23" vertex="1">
          <mxGeometry y="170" width="310" height="30" as="geometry" />
        </mxCell>
        <mxCell id="YSzL0Ylq04cX2s9FnAnc-27" value="" style="shape=partialRectangle;overflow=hidden;connectable=0;fillColor=#3399FF;top=0;left=0;bottom=0;right=0;" parent="YSzL0Ylq04cX2s9FnAnc-26" vertex="1">
          <mxGeometry width="30" height="30" as="geometry">
            <mxRectangle width="30" height="30" as="alternateBounds" />
          </mxGeometry>
        </mxCell>
        <mxCell id="YSzL0Ylq04cX2s9FnAnc-28" value="phone_number char(10) NOT NULL" style="shape=partialRectangle;overflow=hidden;connectable=0;fillColor=#3399FF;top=0;left=0;bottom=0;right=0;align=left;spacingLeft=6;" parent="YSzL0Ylq04cX2s9FnAnc-26" vertex="1">
          <mxGeometry x="30" width="280" height="30" as="geometry">
            <mxRectangle width="280" height="30" as="alternateBounds" />
          </mxGeometry>
        </mxCell>
        <mxCell id="YSzL0Ylq04cX2s9FnAnc-29" value="" style="shape=partialRectangle;collapsible=0;dropTarget=0;pointerEvents=0;fillColor=#3399FF;points=[[0,0.5],[1,0.5]];portConstraint=eastwest;top=0;left=0;right=0;bottom=0;" parent="C-vyLk0tnHw3VtMMgP7b-23" vertex="1">
          <mxGeometry y="200" width="310" height="40" as="geometry" />
        </mxCell>
        <mxCell id="YSzL0Ylq04cX2s9FnAnc-30" value="" style="shape=partialRectangle;overflow=hidden;connectable=0;fillColor=#3399FF;top=0;left=0;bottom=0;right=0;" parent="YSzL0Ylq04cX2s9FnAnc-29" vertex="1">
          <mxGeometry width="30" height="40" as="geometry">
            <mxRectangle width="30" height="40" as="alternateBounds" />
          </mxGeometry>
        </mxCell>
        <mxCell id="YSzL0Ylq04cX2s9FnAnc-31" value="phone_number_confirmed boolean NOT NULL" style="shape=partialRectangle;overflow=hidden;connectable=0;fillColor=#3399FF;top=0;left=0;bottom=0;right=0;align=left;spacingLeft=6;" parent="YSzL0Ylq04cX2s9FnAnc-29" vertex="1">
          <mxGeometry x="30" width="280" height="40" as="geometry">
            <mxRectangle width="280" height="40" as="alternateBounds" />
          </mxGeometry>
        </mxCell>
        <mxCell id="YSzL0Ylq04cX2s9FnAnc-32" value="" style="shape=partialRectangle;collapsible=0;dropTarget=0;pointerEvents=0;fillColor=#3399FF;points=[[0,0.5],[1,0.5]];portConstraint=eastwest;top=0;left=0;right=0;bottom=0;" parent="C-vyLk0tnHw3VtMMgP7b-23" vertex="1">
          <mxGeometry y="240" width="310" height="30" as="geometry" />
        </mxCell>
        <mxCell id="YSzL0Ylq04cX2s9FnAnc-33" value="" style="shape=partialRectangle;overflow=hidden;connectable=0;fillColor=#3399FF;top=0;left=0;bottom=0;right=0;" parent="YSzL0Ylq04cX2s9FnAnc-32" vertex="1">
          <mxGeometry width="30" height="30" as="geometry">
            <mxRectangle width="30" height="30" as="alternateBounds" />
          </mxGeometry>
        </mxCell>
        <mxCell id="YSzL0Ylq04cX2s9FnAnc-34" value="password char(50) NOT NULL" style="shape=partialRectangle;overflow=hidden;connectable=0;fillColor=#3399FF;top=0;left=0;bottom=0;right=0;align=left;spacingLeft=6;" parent="YSzL0Ylq04cX2s9FnAnc-32" vertex="1">
          <mxGeometry x="30" width="280" height="30" as="geometry">
            <mxRectangle width="280" height="30" as="alternateBounds" />
          </mxGeometry>
        </mxCell>
        <mxCell id="YSzL0Ylq04cX2s9FnAnc-35" value="" style="shape=partialRectangle;collapsible=0;dropTarget=0;pointerEvents=0;fillColor=#3399FF;points=[[0,0.5],[1,0.5]];portConstraint=eastwest;top=0;left=0;right=0;bottom=0;" parent="C-vyLk0tnHw3VtMMgP7b-23" vertex="1">
          <mxGeometry y="270" width="310" height="30" as="geometry" />
        </mxCell>
        <mxCell id="YSzL0Ylq04cX2s9FnAnc-36" value="" style="shape=partialRectangle;overflow=hidden;connectable=0;fillColor=#3399FF;top=0;left=0;bottom=0;right=0;" parent="YSzL0Ylq04cX2s9FnAnc-35" vertex="1">
          <mxGeometry width="30" height="30" as="geometry">
            <mxRectangle width="30" height="30" as="alternateBounds" />
          </mxGeometry>
        </mxCell>
        <mxCell id="YSzL0Ylq04cX2s9FnAnc-37" value="profile_image blob" style="shape=partialRectangle;overflow=hidden;connectable=0;fillColor=#3399FF;top=0;left=0;bottom=0;right=0;align=left;spacingLeft=6;" parent="YSzL0Ylq04cX2s9FnAnc-35" vertex="1">
          <mxGeometry x="30" width="280" height="30" as="geometry">
            <mxRectangle width="280" height="30" as="alternateBounds" />
          </mxGeometry>
        </mxCell>
        <mxCell id="MWbHbZWUCHozDzZyzawx-16" value="" style="shape=partialRectangle;collapsible=0;dropTarget=0;pointerEvents=0;fillColor=#3399FF;points=[[0,0.5],[1,0.5]];portConstraint=eastwest;top=0;left=0;right=0;bottom=0;" vertex="1" parent="C-vyLk0tnHw3VtMMgP7b-23">
          <mxGeometry y="300" width="310" height="30" as="geometry" />
        </mxCell>
        <mxCell id="MWbHbZWUCHozDzZyzawx-17" value="" style="shape=partialRectangle;overflow=hidden;connectable=0;fillColor=#3399FF;top=0;left=0;bottom=0;right=0;" vertex="1" parent="MWbHbZWUCHozDzZyzawx-16">
          <mxGeometry width="30" height="30" as="geometry">
            <mxRectangle width="30" height="30" as="alternateBounds" />
          </mxGeometry>
        </mxCell>
        <mxCell id="MWbHbZWUCHozDzZyzawx-18" value="plaid_access_token char(50)" style="shape=partialRectangle;overflow=hidden;connectable=0;fillColor=#3399FF;top=0;left=0;bottom=0;right=0;align=left;spacingLeft=6;" vertex="1" parent="MWbHbZWUCHozDzZyzawx-16">
          <mxGeometry x="30" width="280" height="30" as="geometry">
            <mxRectangle width="280" height="30" as="alternateBounds" />
          </mxGeometry>
        </mxCell>
        <mxCell id="MWbHbZWUCHozDzZyzawx-1" value="Goals" style="shape=table;startSize=30;container=1;collapsible=1;childLayout=tableLayout;fixedRows=1;rowLines=0;fontStyle=1;align=center;resizeLast=1;fillColor=#6666FF;" vertex="1" parent="1">
          <mxGeometry x="-230" y="380" width="250" height="130" as="geometry" />
        </mxCell>
        <mxCell id="MWbHbZWUCHozDzZyzawx-2" value="" style="shape=partialRectangle;collapsible=0;dropTarget=0;pointerEvents=0;fillColor=#6666FF;points=[[0,0.5],[1,0.5]];portConstraint=eastwest;top=0;left=0;right=0;bottom=1;" vertex="1" parent="MWbHbZWUCHozDzZyzawx-1">
          <mxGeometry y="30" width="250" height="30" as="geometry" />
        </mxCell>
        <mxCell id="MWbHbZWUCHozDzZyzawx-3" value="PK" style="shape=partialRectangle;overflow=hidden;connectable=0;fillColor=#6666FF;top=0;left=0;bottom=0;right=0;fontStyle=1;" vertex="1" parent="MWbHbZWUCHozDzZyzawx-2">
          <mxGeometry width="30" height="30" as="geometry">
            <mxRectangle width="30" height="30" as="alternateBounds" />
          </mxGeometry>
        </mxCell>
        <mxCell id="MWbHbZWUCHozDzZyzawx-4" value="goal_idÂ char(50) NOT NULL " style="shape=partialRectangle;overflow=hidden;connectable=0;fillColor=#6666FF;top=0;left=0;bottom=0;right=0;align=left;spacingLeft=6;fontStyle=5;" vertex="1" parent="MWbHbZWUCHozDzZyzawx-2">
          <mxGeometry x="30" width="220" height="30" as="geometry">
            <mxRectangle width="220" height="30" as="alternateBounds" />
          </mxGeometry>
        </mxCell>
        <mxCell id="MWbHbZWUCHozDzZyzawx-5" value="" style="shape=partialRectangle;collapsible=0;dropTarget=0;pointerEvents=0;fillColor=#6666FF;points=[[0,0.5],[1,0.5]];portConstraint=eastwest;top=0;left=0;right=0;bottom=0;" vertex="1" parent="MWbHbZWUCHozDzZyzawx-1">
          <mxGeometry y="60" width="250" height="30" as="geometry" />
        </mxCell>
        <mxCell id="MWbHbZWUCHozDzZyzawx-6" value="" style="shape=partialRectangle;overflow=hidden;connectable=0;fillColor=#6666FF;top=0;left=0;bottom=0;right=0;" vertex="1" parent="MWbHbZWUCHozDzZyzawx-5">
          <mxGeometry width="30" height="30" as="geometry">
            <mxRectangle width="30" height="30" as="alternateBounds" />
          </mxGeometry>
        </mxCell>
        <mxCell id="MWbHbZWUCHozDzZyzawx-7" value="goal_title char(50) NOT NULL" style="shape=partialRectangle;overflow=hidden;connectable=0;fillColor=#6666FF;top=0;left=0;bottom=0;right=0;align=left;spacingLeft=6;" vertex="1" parent="MWbHbZWUCHozDzZyzawx-5">
          <mxGeometry x="30" width="220" height="30" as="geometry">
            <mxRectangle width="220" height="30" as="alternateBounds" />
          </mxGeometry>
        </mxCell>
        <mxCell id="MWbHbZWUCHozDzZyzawx-8" value="" style="shape=partialRectangle;collapsible=0;dropTarget=0;pointerEvents=0;fillColor=#6666FF;points=[[0,0.5],[1,0.5]];portConstraint=eastwest;top=0;left=0;right=0;bottom=0;" vertex="1" parent="MWbHbZWUCHozDzZyzawx-1">
          <mxGeometry y="90" width="250" height="30" as="geometry" />
        </mxCell>
        <mxCell id="MWbHbZWUCHozDzZyzawx-9" value="" style="shape=partialRectangle;overflow=hidden;connectable=0;fillColor=#6666FF;top=0;left=0;bottom=0;right=0;" vertex="1" parent="MWbHbZWUCHozDzZyzawx-8">
          <mxGeometry width="30" height="30" as="geometry">
            <mxRectangle width="30" height="30" as="alternateBounds" />
          </mxGeometry>
        </mxCell>
        <mxCell id="MWbHbZWUCHozDzZyzawx-10" value="goal_desc char(250) NOT NULL" style="shape=partialRectangle;overflow=hidden;connectable=0;fillColor=#6666FF;top=0;left=0;bottom=0;right=0;align=left;spacingLeft=6;" vertex="1" parent="MWbHbZWUCHozDzZyzawx-8">
          <mxGeometry x="30" width="220" height="30" as="geometry">
            <mxRectangle width="220" height="30" as="alternateBounds" />
          </mxGeometry>
        </mxCell>
        <object label="User Cards" family_name="" id="C-vyLk0tnHw3VtMMgP7b-2">
          <mxCell style="shape=table;startSize=30;container=1;collapsible=1;childLayout=tableLayout;fixedRows=1;rowLines=0;fontStyle=1;align=center;resizeLast=1;fillColor=#CC6600;" parent="1" vertex="1">
            <mxGeometry x="520" y="150" width="250" height="280" as="geometry" />
          </mxCell>
        </object>
        <mxCell id="C-vyLk0tnHw3VtMMgP7b-3" value="" style="shape=partialRectangle;collapsible=0;dropTarget=0;pointerEvents=0;fillColor=#CC6600;points=[[0,0.5],[1,0.5]];portConstraint=eastwest;top=0;left=0;right=0;bottom=1;" parent="C-vyLk0tnHw3VtMMgP7b-2" vertex="1">
          <mxGeometry y="30" width="250" height="30" as="geometry" />
        </mxCell>
        <mxCell id="C-vyLk0tnHw3VtMMgP7b-4" value="PK" style="shape=partialRectangle;overflow=hidden;connectable=0;fillColor=#CC6600;top=0;left=0;bottom=0;right=0;fontStyle=1;" parent="C-vyLk0tnHw3VtMMgP7b-3" vertex="1">
          <mxGeometry width="30" height="30" as="geometry">
            <mxRectangle width="30" height="30" as="alternateBounds" />
          </mxGeometry>
        </mxCell>
        <mxCell id="C-vyLk0tnHw3VtMMgP7b-5" value="user_card_id char(50) NOT NULL " style="shape=partialRectangle;overflow=hidden;connectable=0;fillColor=#CC6600;top=0;left=0;bottom=0;right=0;align=left;spacingLeft=6;fontStyle=5;" parent="C-vyLk0tnHw3VtMMgP7b-3" vertex="1">
          <mxGeometry x="30" width="220" height="30" as="geometry">
            <mxRectangle width="220" height="30" as="alternateBounds" />
          </mxGeometry>
        </mxCell>
        <mxCell id="C-vyLk0tnHw3VtMMgP7b-6" value="" style="shape=partialRectangle;collapsible=0;dropTarget=0;pointerEvents=0;fillColor=#CC6600;points=[[0,0.5],[1,0.5]];portConstraint=eastwest;top=0;left=0;right=0;bottom=0;" parent="C-vyLk0tnHw3VtMMgP7b-2" vertex="1">
          <mxGeometry y="60" width="250" height="30" as="geometry" />
        </mxCell>
        <mxCell id="C-vyLk0tnHw3VtMMgP7b-7" value="FK1" style="shape=partialRectangle;overflow=hidden;connectable=0;fillColor=#CC6600;top=0;left=0;bottom=0;right=0;" parent="C-vyLk0tnHw3VtMMgP7b-6" vertex="1">
          <mxGeometry width="30" height="30" as="geometry">
            <mxRectangle width="30" height="30" as="alternateBounds" />
          </mxGeometry>
        </mxCell>
        <mxCell id="C-vyLk0tnHw3VtMMgP7b-8" value="user_id char(50) NOT NULL" style="shape=partialRectangle;overflow=hidden;connectable=0;fillColor=#CC6600;top=0;left=0;bottom=0;right=0;align=left;spacingLeft=6;" parent="C-vyLk0tnHw3VtMMgP7b-6" vertex="1">
          <mxGeometry x="30" width="220" height="30" as="geometry">
            <mxRectangle width="220" height="30" as="alternateBounds" />
          </mxGeometry>
        </mxCell>
        <mxCell id="C-vyLk0tnHw3VtMMgP7b-9" value="" style="shape=partialRectangle;collapsible=0;dropTarget=0;pointerEvents=0;fillColor=#CC6600;points=[[0,0.5],[1,0.5]];portConstraint=eastwest;top=0;left=0;right=0;bottom=0;" parent="C-vyLk0tnHw3VtMMgP7b-2" vertex="1">
          <mxGeometry y="90" width="250" height="30" as="geometry" />
        </mxCell>
        <mxCell id="C-vyLk0tnHw3VtMMgP7b-10" value="" style="shape=partialRectangle;overflow=hidden;connectable=0;fillColor=#CC6600;top=0;left=0;bottom=0;right=0;" parent="C-vyLk0tnHw3VtMMgP7b-9" vertex="1">
          <mxGeometry width="30" height="30" as="geometry">
            <mxRectangle width="30" height="30" as="alternateBounds" />
          </mxGeometry>
        </mxCell>
        <mxCell id="C-vyLk0tnHw3VtMMgP7b-11" value="card_number char(50)Â " style="shape=partialRectangle;overflow=hidden;connectable=0;fillColor=#CC6600;top=0;left=0;bottom=0;right=0;align=left;spacingLeft=6;" parent="C-vyLk0tnHw3VtMMgP7b-9" vertex="1">
          <mxGeometry x="30" width="220" height="30" as="geometry">
            <mxRectangle width="220" height="30" as="alternateBounds" />
          </mxGeometry>
        </mxCell>
        <mxCell id="YSzL0Ylq04cX2s9FnAnc-38" value="" style="shape=partialRectangle;collapsible=0;dropTarget=0;pointerEvents=0;fillColor=#CC6600;points=[[0,0.5],[1,0.5]];portConstraint=eastwest;top=0;left=0;right=0;bottom=0;" parent="C-vyLk0tnHw3VtMMgP7b-2" vertex="1">
          <mxGeometry y="120" width="250" height="30" as="geometry" />
        </mxCell>
        <mxCell id="YSzL0Ylq04cX2s9FnAnc-39" value="" style="shape=partialRectangle;overflow=hidden;connectable=0;fillColor=#CC6600;top=0;left=0;bottom=0;right=0;" parent="YSzL0Ylq04cX2s9FnAnc-38" vertex="1">
          <mxGeometry width="30" height="30" as="geometry">
            <mxRectangle width="30" height="30" as="alternateBounds" />
          </mxGeometry>
        </mxCell>
        <mxCell id="YSzL0Ylq04cX2s9FnAnc-40" value="exp char(50)" style="shape=partialRectangle;overflow=hidden;connectable=0;fillColor=#CC6600;top=0;left=0;bottom=0;right=0;align=left;spacingLeft=6;" parent="YSzL0Ylq04cX2s9FnAnc-38" vertex="1">
          <mxGeometry x="30" width="220" height="30" as="geometry">
            <mxRectangle width="220" height="30" as="alternateBounds" />
          </mxGeometry>
        </mxCell>
        <mxCell id="YSzL0Ylq04cX2s9FnAnc-41" value="" style="shape=partialRectangle;collapsible=0;dropTarget=0;pointerEvents=0;fillColor=#CC6600;points=[[0,0.5],[1,0.5]];portConstraint=eastwest;top=0;left=0;right=0;bottom=0;" parent="C-vyLk0tnHw3VtMMgP7b-2" vertex="1">
          <mxGeometry y="150" width="250" height="30" as="geometry" />
        </mxCell>
        <mxCell id="YSzL0Ylq04cX2s9FnAnc-42" value="" style="shape=partialRectangle;overflow=hidden;connectable=0;fillColor=#CC6600;top=0;left=0;bottom=0;right=0;" parent="YSzL0Ylq04cX2s9FnAnc-41" vertex="1">
          <mxGeometry width="30" height="30" as="geometry">
            <mxRectangle width="30" height="30" as="alternateBounds" />
          </mxGeometry>
        </mxCell>
        <mxCell id="YSzL0Ylq04cX2s9FnAnc-43" value="cvv char(50)" style="shape=partialRectangle;overflow=hidden;connectable=0;fillColor=#CC6600;top=0;left=0;bottom=0;right=0;align=left;spacingLeft=6;" parent="YSzL0Ylq04cX2s9FnAnc-41" vertex="1">
          <mxGeometry x="30" width="220" height="30" as="geometry">
            <mxRectangle width="220" height="30" as="alternateBounds" />
          </mxGeometry>
        </mxCell>
        <mxCell id="YSzL0Ylq04cX2s9FnAnc-44" value="" style="shape=partialRectangle;collapsible=0;dropTarget=0;pointerEvents=0;fillColor=#CC6600;points=[[0,0.5],[1,0.5]];portConstraint=eastwest;top=0;left=0;right=0;bottom=0;" parent="C-vyLk0tnHw3VtMMgP7b-2" vertex="1">
          <mxGeometry y="180" width="250" height="30" as="geometry" />
        </mxCell>
        <mxCell id="YSzL0Ylq04cX2s9FnAnc-45" value="" style="shape=partialRectangle;overflow=hidden;connectable=0;fillColor=#CC6600;top=0;left=0;bottom=0;right=0;" parent="YSzL0Ylq04cX2s9FnAnc-44" vertex="1">
          <mxGeometry width="30" height="30" as="geometry">
            <mxRectangle width="30" height="30" as="alternateBounds" />
          </mxGeometry>
        </mxCell>
        <mxCell id="YSzL0Ylq04cX2s9FnAnc-46" value="cardholder_name char(50) NOT NULL" style="shape=partialRectangle;overflow=hidden;connectable=0;fillColor=#CC6600;top=0;left=0;bottom=0;right=0;align=left;spacingLeft=6;" parent="YSzL0Ylq04cX2s9FnAnc-44" vertex="1">
          <mxGeometry x="30" width="220" height="30" as="geometry">
            <mxRectangle width="220" height="30" as="alternateBounds" />
          </mxGeometry>
        </mxCell>
        <mxCell id="YSzL0Ylq04cX2s9FnAnc-50" value="" style="shape=partialRectangle;collapsible=0;dropTarget=0;pointerEvents=0;fillColor=#CC6600;points=[[0,0.5],[1,0.5]];portConstraint=eastwest;top=0;left=0;right=0;bottom=0;" parent="C-vyLk0tnHw3VtMMgP7b-2" vertex="1">
          <mxGeometry y="210" width="250" height="30" as="geometry" />
        </mxCell>
        <mxCell id="YSzL0Ylq04cX2s9FnAnc-51" value="" style="shape=partialRectangle;overflow=hidden;connectable=0;fillColor=#CC6600;top=0;left=0;bottom=0;right=0;" parent="YSzL0Ylq04cX2s9FnAnc-50" vertex="1">
          <mxGeometry width="30" height="30" as="geometry">
            <mxRectangle width="30" height="30" as="alternateBounds" />
          </mxGeometry>
        </mxCell>
        <mxCell id="YSzL0Ylq04cX2s9FnAnc-52" value="channel_id char(50) NOT NULL" style="shape=partialRectangle;overflow=hidden;connectable=0;fillColor=#CC6600;top=0;left=0;bottom=0;right=0;align=left;spacingLeft=6;" parent="YSzL0Ylq04cX2s9FnAnc-50" vertex="1">
          <mxGeometry x="30" width="220" height="30" as="geometry">
            <mxRectangle width="220" height="30" as="alternateBounds" />
          </mxGeometry>
        </mxCell>
        <mxCell id="YSzL0Ylq04cX2s9FnAnc-53" value="" style="shape=partialRectangle;collapsible=0;dropTarget=0;pointerEvents=0;fillColor=#CC6600;points=[[0,0.5],[1,0.5]];portConstraint=eastwest;top=0;left=0;right=0;bottom=0;" parent="C-vyLk0tnHw3VtMMgP7b-2" vertex="1">
          <mxGeometry y="240" width="250" height="30" as="geometry" />
        </mxCell>
        <mxCell id="YSzL0Ylq04cX2s9FnAnc-54" value="" style="shape=partialRectangle;overflow=hidden;connectable=0;fillColor=#CC6600;top=0;left=0;bottom=0;right=0;" parent="YSzL0Ylq04cX2s9FnAnc-53" vertex="1">
          <mxGeometry width="30" height="30" as="geometry">
            <mxRectangle width="30" height="30" as="alternateBounds" />
          </mxGeometry>
        </mxCell>
        <mxCell id="YSzL0Ylq04cX2s9FnAnc-55" value="plaid_account_id char(50)" style="shape=partialRectangle;overflow=hidden;connectable=0;fillColor=#CC6600;top=0;left=0;bottom=0;right=0;align=left;spacingLeft=6;" parent="YSzL0Ylq04cX2s9FnAnc-53" vertex="1">
          <mxGeometry x="30" width="220" height="30" as="geometry">
            <mxRectangle width="220" height="30" as="alternateBounds" />
          </mxGeometry>
        </mxCell>
      </root>
    </mxGraphModel>
  </diagram>
</mxfile>
